<?xml version="1.0" encoding="UTF-8" standalone="no"?>
<!DOCTYPE svg PUBLIC "-//W3C//DTD SVG 1.1//EN"
 "http://www.w3.org/Graphics/SVG/1.1/DTD/svg11.dtd">
<!-- Generated by graphviz version 12.2.1 (20241206.2353)
 -->
<!-- Pages: 1 -->
<svg width="713pt" height="126pt"
 viewBox="0.00 0.00 713.17 126.00" xmlns="http://www.w3.org/2000/svg" xmlns:xlink="http://www.w3.org/1999/xlink">
<g id="graph0" class="graph" transform="scale(1 1) rotate(0) translate(4 122)">
<polygon fill="white" stroke="none" points="-4,4 -4,-122 709.17,-122 709.17,4 -4,4"/>
<!-- 4569234624 -->
<g id="node1" class="node">
<title>4569234624</title>
<polygon fill="none" stroke="black" points="640.42,-34.5 640.42,-83.5 705.17,-83.5 705.17,-34.5 640.42,-34.5"/>
<text text-anchor="middle" x="672.79" y="-66.2" font-family="Times,serif" font-size="14.00">data: 8.0</text>
<polyline fill="none" stroke="black" points="640.42,-59 705.17,-59"/>
<text text-anchor="middle" x="672.79" y="-41.7" font-family="Times,serif" font-size="14.00">grad: 1.0</text>
</g>
<!-- 45692346244411028432 -->
<g id="node2" class="node">
<title>45692346244411028432</title>
<ellipse fill="none" stroke="black" cx="562.28" cy="-59" rx="42.14" ry="18"/>
<text text-anchor="middle" x="562.28" y="-53.95" font-family="Times,serif" font-size="14.00">Reshape</text>
</g>
<!-- 45692346244411028432&#45;&gt;4569234624 -->
<g id="edge1" class="edge">
<title>45692346244411028432&#45;&gt;4569234624</title>
<path fill="none" stroke="black" d="M604.61,-59C612.5,-59 620.77,-59 628.71,-59"/>
<polygon fill="black" stroke="black" points="628.51,-62.5 638.51,-59 628.51,-55.5 628.51,-62.5"/>
</g>
<!-- 4408739328 -->
<g id="node3" class="node">
<title>4408739328</title>
<polygon fill="none" stroke="black" points="0,-68.5 0,-117.5 81.25,-117.5 81.25,-68.5 0,-68.5"/>
<text text-anchor="middle" x="40.62" y="-100.2" font-family="Times,serif" font-size="14.00">data: [2. 3.]</text>
<polyline fill="none" stroke="black" points="0,-93 81.25,-93"/>
<text text-anchor="middle" x="40.62" y="-75.7" font-family="Times,serif" font-size="14.00">grad: [1. 2.]</text>
</g>
<!-- 45692243844411024688 -->
<g id="node8" class="node">
<title>45692243844411024688</title>
<ellipse fill="none" stroke="black" cx="144.25" cy="-59" rx="27" ry="18"/>
<text text-anchor="middle" x="144.25" y="-53.95" font-family="Times,serif" font-size="14.00">Mul</text>
</g>
<!-- 4408739328&#45;&gt;45692243844411024688 -->
<g id="edge5" class="edge">
<title>4408739328&#45;&gt;45692243844411024688</title>
<path fill="none" stroke="black" d="M81.5,-79.66C90.57,-76.63 100.13,-73.43 108.94,-70.48"/>
<polygon fill="black" stroke="black" points="109.81,-73.88 118.18,-67.39 107.59,-67.24 109.81,-73.88"/>
</g>
<!-- 4569173184 -->
<g id="node4" class="node">
<title>4569173184</title>
<polygon fill="none" stroke="black" points="0,-0.5 0,-49.5 81.25,-49.5 81.25,-0.5 0,-0.5"/>
<text text-anchor="middle" x="40.62" y="-32.2" font-family="Times,serif" font-size="14.00">data: [1. 2.]</text>
<polyline fill="none" stroke="black" points="0,-25 81.25,-25"/>
<text text-anchor="middle" x="40.62" y="-7.7" font-family="Times,serif" font-size="14.00">grad: [2. 3.]</text>
</g>
<!-- 4569173184&#45;&gt;45692243844411024688 -->
<g id="edge4" class="edge">
<title>4569173184&#45;&gt;45692243844411024688</title>
<path fill="none" stroke="black" d="M81.5,-38.34C90.57,-41.37 100.13,-44.57 108.94,-47.52"/>
<polygon fill="black" stroke="black" points="107.59,-50.76 118.18,-50.61 109.81,-44.12 107.59,-50.76"/>
</g>
<!-- 4408738432 -->
<g id="node5" class="node">
<title>4408738432</title>
<polygon fill="none" stroke="black" points="417.14,-34.5 417.14,-83.5 484.14,-83.5 484.14,-34.5 417.14,-34.5"/>
<text text-anchor="middle" x="450.64" y="-66.2" font-family="Times,serif" font-size="14.00">data: [8.]</text>
<polyline fill="none" stroke="black" points="417.14,-59 484.14,-59"/>
<text text-anchor="middle" x="450.64" y="-41.7" font-family="Times,serif" font-size="14.00">grad: [1.]</text>
</g>
<!-- 4408738432&#45;&gt;45692346244411028432 -->
<g id="edge7" class="edge">
<title>4408738432&#45;&gt;45692346244411028432</title>
<path fill="none" stroke="black" d="M484.54,-59C492.08,-59 500.29,-59 508.44,-59"/>
<polygon fill="black" stroke="black" points="508.34,-62.5 518.34,-59 508.34,-55.5 508.34,-62.5"/>
</g>
<!-- 44087384324411028816 -->
<g id="node6" class="node">
<title>44087384324411028816</title>
<ellipse fill="none" stroke="black" cx="352.82" cy="-59" rx="28.32" ry="18"/>
<text text-anchor="middle" x="352.82" y="-53.95" font-family="Times,serif" font-size="14.00">Sum</text>
</g>
<!-- 44087384324411028816&#45;&gt;4408738432 -->
<g id="edge2" class="edge">
<title>44087384324411028816&#45;&gt;4408738432</title>
<path fill="none" stroke="black" d="M381.54,-59C389.05,-59 397.37,-59 405.55,-59"/>
<polygon fill="black" stroke="black" points="405.39,-62.5 415.39,-59 405.39,-55.5 405.39,-62.5"/>
</g>
<!-- 4569224384 -->
<g id="node7" class="node">
<title>4569224384</title>
<polygon fill="none" stroke="black" points="207.25,-34.5 207.25,-83.5 288.5,-83.5 288.5,-34.5 207.25,-34.5"/>
<text text-anchor="middle" x="247.88" y="-66.2" font-family="Times,serif" font-size="14.00">data: [2. 6.]</text>
<polyline fill="none" stroke="black" points="207.25,-59 288.5,-59"/>
<text text-anchor="middle" x="247.88" y="-41.7" font-family="Times,serif" font-size="14.00">grad: [1. 1.]</text>
</g>
<!-- 4569224384&#45;&gt;44087384324411028816 -->
<g id="edge6" class="edge">
<title>4569224384&#45;&gt;44087384324411028816</title>
<path fill="none" stroke="black" d="M288.97,-59C296.77,-59 304.93,-59 312.7,-59"/>
<polygon fill="black" stroke="black" points="312.57,-62.5 322.57,-59 312.57,-55.5 312.57,-62.5"/>
</g>
<!-- 45692243844411024688&#45;&gt;4569224384 -->
<g id="edge3" class="edge">
<title>45692243844411024688&#45;&gt;4569224384</title>
<path fill="none" stroke="black" d="M171.69,-59C178.96,-59 187.11,-59 195.28,-59"/>
<polygon fill="black" stroke="black" points="195.26,-62.5 205.26,-59 195.26,-55.5 195.26,-62.5"/>
</g>
</g>
</svg>
