<?xml version="1.0" encoding="UTF-8" standalone="no"?>
<!DOCTYPE svg PUBLIC "-//W3C//DTD SVG 1.1//EN"
 "http://www.w3.org/Graphics/SVG/1.1/DTD/svg11.dtd">
<!-- Generated by graphviz version 12.2.1 (20241206.2353)
 -->
<!-- Pages: 1 -->
<svg width="732pt" height="126pt"
 viewBox="0.00 0.00 731.92 126.00" xmlns="http://www.w3.org/2000/svg" xmlns:xlink="http://www.w3.org/1999/xlink">
<g id="graph0" class="graph" transform="scale(1 1) rotate(0) translate(4 122)">
<polygon fill="white" stroke="none" points="-4,4 -4,-122 727.92,-122 727.92,4 -4,4"/>
<!-- 4569413120 -->
<g id="node1" class="node">
<title>4569413120</title>
<polygon fill="none" stroke="black" points="647.17,-34.5 647.17,-83.5 723.92,-83.5 723.92,-34.5 647.17,-34.5"/>
<text text-anchor="middle" x="685.54" y="-66.2" font-family="Times,serif" font-size="14.00">data: 8.0</text>
<polyline fill="none" stroke="black" points="647.17,-59 723.92,-59"/>
<text text-anchor="middle" x="685.54" y="-41.7" font-family="Times,serif" font-size="14.00">grad: None</text>
</g>
<!-- 45694131204411017632 -->
<g id="node2" class="node">
<title>45694131204411017632</title>
<ellipse fill="none" stroke="black" cx="569.03" cy="-59" rx="42.14" ry="18"/>
<text text-anchor="middle" x="569.03" y="-53.95" font-family="Times,serif" font-size="14.00">Reshape</text>
</g>
<!-- 45694131204411017632&#45;&gt;4569413120 -->
<g id="edge1" class="edge">
<title>45694131204411017632&#45;&gt;4569413120</title>
<path fill="none" stroke="black" d="M611.37,-59C619.12,-59 627.29,-59 635.25,-59"/>
<polygon fill="black" stroke="black" points="635.18,-62.5 645.18,-59 635.18,-55.5 635.18,-62.5"/>
</g>
<!-- 4569407488 -->
<g id="node3" class="node">
<title>4569407488</title>
<polygon fill="none" stroke="black" points="414.14,-34.5 414.14,-83.5 490.89,-83.5 490.89,-34.5 414.14,-34.5"/>
<text text-anchor="middle" x="452.52" y="-66.2" font-family="Times,serif" font-size="14.00">data: [8.]</text>
<polyline fill="none" stroke="black" points="414.14,-59 490.89,-59"/>
<text text-anchor="middle" x="452.52" y="-41.7" font-family="Times,serif" font-size="14.00">grad: None</text>
</g>
<!-- 4569407488&#45;&gt;45694131204411017632 -->
<g id="edge4" class="edge">
<title>4569407488&#45;&gt;45694131204411017632</title>
<path fill="none" stroke="black" d="M491.33,-59C499.03,-59 507.27,-59 515.38,-59"/>
<polygon fill="black" stroke="black" points="515.19,-62.5 525.19,-59 515.19,-55.5 515.19,-62.5"/>
</g>
<!-- 45694074884411024208 -->
<g id="node4" class="node">
<title>45694074884411024208</title>
<ellipse fill="none" stroke="black" cx="349.82" cy="-59" rx="28.32" ry="18"/>
<text text-anchor="middle" x="349.82" y="-53.95" font-family="Times,serif" font-size="14.00">Sum</text>
</g>
<!-- 45694074884411024208&#45;&gt;4569407488 -->
<g id="edge2" class="edge">
<title>45694074884411024208&#45;&gt;4569407488</title>
<path fill="none" stroke="black" d="M378.6,-59C385.96,-59 394.13,-59 402.26,-59"/>
<polygon fill="black" stroke="black" points="402.13,-62.5 412.13,-59 402.13,-55.5 402.13,-62.5"/>
</g>
<!-- 4569412352 -->
<g id="node5" class="node">
<title>4569412352</title>
<polygon fill="none" stroke="black" points="0,-68.5 0,-117.5 79.75,-117.5 79.75,-68.5 0,-68.5"/>
<text text-anchor="middle" x="39.88" y="-100.2" font-family="Times,serif" font-size="14.00">data: [1. 2.]</text>
<polyline fill="none" stroke="black" points="0,-93 79.75,-93"/>
<text text-anchor="middle" x="39.88" y="-75.7" font-family="Times,serif" font-size="14.00">grad: None</text>
</g>
<!-- 45694004484411030304 -->
<g id="node8" class="node">
<title>45694004484411030304</title>
<ellipse fill="none" stroke="black" cx="142.75" cy="-59" rx="27" ry="18"/>
<text text-anchor="middle" x="142.75" y="-53.95" font-family="Times,serif" font-size="14.00">Mul</text>
</g>
<!-- 4569412352&#45;&gt;45694004484411030304 -->
<g id="edge6" class="edge">
<title>4569412352&#45;&gt;45694004484411030304</title>
<path fill="none" stroke="black" d="M80.16,-79.76C89.19,-76.72 98.71,-73.51 107.51,-70.54"/>
<polygon fill="black" stroke="black" points="108.36,-73.95 116.72,-67.44 106.13,-67.31 108.36,-73.95"/>
</g>
<!-- 4569071680 -->
<g id="node6" class="node">
<title>4569071680</title>
<polygon fill="none" stroke="black" points="0,-0.5 0,-49.5 79.75,-49.5 79.75,-0.5 0,-0.5"/>
<text text-anchor="middle" x="39.88" y="-32.2" font-family="Times,serif" font-size="14.00">data: [2. 3.]</text>
<polyline fill="none" stroke="black" points="0,-25 79.75,-25"/>
<text text-anchor="middle" x="39.88" y="-7.7" font-family="Times,serif" font-size="14.00">grad: None</text>
</g>
<!-- 4569071680&#45;&gt;45694004484411030304 -->
<g id="edge7" class="edge">
<title>4569071680&#45;&gt;45694004484411030304</title>
<path fill="none" stroke="black" d="M80.16,-38.24C89.19,-41.28 98.71,-44.49 107.51,-47.46"/>
<polygon fill="black" stroke="black" points="106.13,-50.69 116.72,-50.56 108.36,-44.05 106.13,-50.69"/>
</g>
<!-- 4569400448 -->
<g id="node7" class="node">
<title>4569400448</title>
<polygon fill="none" stroke="black" points="205.75,-34.5 205.75,-83.5 285.5,-83.5 285.5,-34.5 205.75,-34.5"/>
<text text-anchor="middle" x="245.62" y="-66.2" font-family="Times,serif" font-size="14.00">data: [2. 6.]</text>
<polyline fill="none" stroke="black" points="205.75,-59 285.5,-59"/>
<text text-anchor="middle" x="245.62" y="-41.7" font-family="Times,serif" font-size="14.00">grad: None</text>
</g>
<!-- 4569400448&#45;&gt;45694074884411024208 -->
<g id="edge5" class="edge">
<title>4569400448&#45;&gt;45694074884411024208</title>
<path fill="none" stroke="black" d="M285.84,-59C293.69,-59 301.94,-59 309.78,-59"/>
<polygon fill="black" stroke="black" points="309.76,-62.5 319.76,-59 309.76,-55.5 309.76,-62.5"/>
</g>
<!-- 45694004484411030304&#45;&gt;4569400448 -->
<g id="edge3" class="edge">
<title>45694004484411030304&#45;&gt;4569400448</title>
<path fill="none" stroke="black" d="M169.99,-59C177.46,-59 185.85,-59 194.24,-59"/>
<polygon fill="black" stroke="black" points="194.08,-62.5 204.08,-59 194.08,-55.5 194.08,-62.5"/>
</g>
</g>
</svg>
