<?xml version="1.0" encoding="UTF-8" standalone="no"?>
<!DOCTYPE svg PUBLIC "-//W3C//DTD SVG 1.1//EN"
 "http://www.w3.org/Graphics/SVG/1.1/DTD/svg11.dtd">
<!-- Generated by graphviz version 12.2.1 (20241206.2353)
 -->
<!-- Pages: 1 -->
<svg width="1942pt" height="430pt"
 viewBox="0.00 0.00 1941.92 430.00" xmlns="http://www.w3.org/2000/svg" xmlns:xlink="http://www.w3.org/1999/xlink">
<g id="graph0" class="graph" transform="scale(1 1) rotate(0) translate(4 426)">
<polygon fill="white" stroke="none" points="-4,4 -4,-426 1937.92,-426 1937.92,4 -4,4"/>
<!-- 4474962176 -->
<g id="node1" class="node">
<title>4474962176</title>
<polygon fill="none" stroke="black" points="1155.5,-137.5 1155.5,-173.5 1320,-173.5 1320,-137.5 1155.5,-137.5"/>
<text text-anchor="middle" x="1237.75" y="-150.7" font-family="Times,serif" font-size="14.00">data: 3.4000000953674316</text>
</g>
<!-- 44737732484476356640 -->
<g id="node27" class="node">
<title>44737732484476356640</title>
<ellipse fill="none" stroke="black" cx="1384.32" cy="-155.5" rx="28.32" ry="18"/>
<text text-anchor="middle" x="1384.32" y="-150.45" font-family="Times,serif" font-size="14.00">Sum</text>
</g>
<!-- 4474962176&#45;&gt;44737732484476356640 -->
<g id="edge32" class="edge">
<title>4474962176&#45;&gt;44737732484476356640</title>
<path fill="none" stroke="black" d="M1320.33,-155.5C1328.65,-155.5 1336.81,-155.5 1344.34,-155.5"/>
<polygon fill="black" stroke="black" points="1344.1,-159 1354.1,-155.5 1344.1,-152 1344.1,-159"/>
</g>
<!-- 44749621764393959920 -->
<g id="node2" class="node">
<title>44749621764393959920</title>
<ellipse fill="none" stroke="black" cx="1092.5" cy="-155.5" rx="27" ry="18"/>
<text text-anchor="middle" x="1092.5" y="-150.45" font-family="Times,serif" font-size="14.00">Add</text>
</g>
<!-- 44749621764393959920&#45;&gt;4474962176 -->
<g id="edge1" class="edge">
<title>44749621764393959920&#45;&gt;4474962176</title>
<path fill="none" stroke="black" d="M1119.77,-155.5C1126.99,-155.5 1135.24,-155.5 1143.96,-155.5"/>
<polygon fill="black" stroke="black" points="1143.68,-159 1153.68,-155.5 1143.68,-152 1143.68,-159"/>
</g>
<!-- 4473783168 -->
<g id="node3" class="node">
<title>4473783168</title>
<polygon fill="none" stroke="black" points="865,-165.5 865,-201.5 1029.5,-201.5 1029.5,-165.5 865,-165.5"/>
<text text-anchor="middle" x="947.25" y="-178.7" font-family="Times,serif" font-size="14.00">data: 1.7000000476837158</text>
</g>
<!-- 4473783168&#45;&gt;44749621764393959920 -->
<g id="edge23" class="edge">
<title>4473783168&#45;&gt;44749621764393959920</title>
<path fill="none" stroke="black" d="M1029.92,-167.54C1038.68,-165.82 1047.24,-164.15 1055.05,-162.62"/>
<polygon fill="black" stroke="black" points="1055.64,-166.08 1064.79,-160.72 1054.3,-159.21 1055.64,-166.08"/>
</g>
<!-- 44737831684471676480 -->
<g id="node4" class="node">
<title>44737831684471676480</title>
<ellipse fill="none" stroke="black" cx="802" cy="-183.5" rx="27" ry="18"/>
<text text-anchor="middle" x="802" y="-178.45" font-family="Times,serif" font-size="14.00">Add</text>
</g>
<!-- 44737831684471676480&#45;&gt;4473783168 -->
<g id="edge2" class="edge">
<title>44737831684471676480&#45;&gt;4473783168</title>
<path fill="none" stroke="black" d="M829.27,-183.5C836.49,-183.5 844.74,-183.5 853.46,-183.5"/>
<polygon fill="black" stroke="black" points="853.18,-187 863.18,-183.5 853.18,-180 853.18,-187"/>
</g>
<!-- 4473768576 -->
<g id="node5" class="node">
<title>4473768576</title>
<polygon fill="none" stroke="black" points="378.5,-220.5 378.5,-256.5 441.75,-256.5 441.75,-220.5 378.5,-220.5"/>
<text text-anchor="middle" x="410.12" y="-233.7" font-family="Times,serif" font-size="14.00">data: 1.0</text>
</g>
<!-- 44737978244471669088 -->
<g id="node25" class="node">
<title>44737978244471669088</title>
<ellipse fill="none" stroke="black" cx="504.75" cy="-183.5" rx="27" ry="18"/>
<text text-anchor="middle" x="504.75" y="-178.45" font-family="Times,serif" font-size="14.00">Add</text>
</g>
<!-- 4473768576&#45;&gt;44737978244471669088 -->
<g id="edge36" class="edge">
<title>4473768576&#45;&gt;44737978244471669088</title>
<path fill="none" stroke="black" d="M442.23,-220.03C452.55,-213.9 464.02,-207.09 474.22,-201.03"/>
<polygon fill="black" stroke="black" points="475.8,-204.16 482.62,-196.05 472.23,-198.15 475.8,-204.16"/>
</g>
<!-- 44737685764471682432 -->
<g id="node6" class="node">
<title>44737685764471682432</title>
<ellipse fill="none" stroke="black" cx="315.5" cy="-238.5" rx="27" ry="18"/>
<text text-anchor="middle" x="315.5" y="-233.45" font-family="Times,serif" font-size="14.00">Add</text>
</g>
<!-- 44737685764471682432&#45;&gt;4473768576 -->
<g id="edge3" class="edge">
<title>44737685764471682432&#45;&gt;4473768576</title>
<path fill="none" stroke="black" d="M342.79,-238.5C350.28,-238.5 358.64,-238.5 366.82,-238.5"/>
<polygon fill="black" stroke="black" points="366.66,-242 376.66,-238.5 366.66,-235 366.66,-242"/>
</g>
<!-- 4474724480 -->
<g id="node7" class="node">
<title>4474724480</title>
<polygon fill="none" stroke="black" points="189.25,-330.5 189.25,-366.5 252.5,-366.5 252.5,-330.5 189.25,-330.5"/>
<text text-anchor="middle" x="220.88" y="-343.7" font-family="Times,serif" font-size="14.00">data: 0.5</text>
</g>
<!-- 4474724480&#45;&gt;44737685764471682432 -->
<g id="edge24" class="edge">
<title>4474724480&#45;&gt;44737685764471682432</title>
<path fill="none" stroke="black" d="M243.82,-330.15C246.83,-327.35 249.81,-324.42 252.5,-321.5 269.11,-303.48 285.61,-281.13 297.4,-264.16"/>
<polygon fill="black" stroke="black" points="300.15,-266.35 302.91,-256.12 294.37,-262.39 300.15,-266.35"/>
</g>
<!-- 44747244804473647600 -->
<g id="node8" class="node">
<title>44747244804473647600</title>
<ellipse fill="none" stroke="black" cx="126.25" cy="-348.5" rx="27" ry="18"/>
<text text-anchor="middle" x="126.25" y="-343.45" font-family="Times,serif" font-size="14.00">Mul</text>
</g>
<!-- 44747244804473647600&#45;&gt;4474724480 -->
<g id="edge4" class="edge">
<title>44747244804473647600&#45;&gt;4474724480</title>
<path fill="none" stroke="black" d="M153.54,-348.5C161.03,-348.5 169.39,-348.5 177.57,-348.5"/>
<polygon fill="black" stroke="black" points="177.41,-352 187.41,-348.5 177.41,-345 177.41,-352"/>
</g>
<!-- 4476154752 -->
<g id="node9" class="node">
<title>4476154752</title>
<polygon fill="none" stroke="black" points="0,-330.5 0,-366.5 63.25,-366.5 63.25,-330.5 0,-330.5"/>
<text text-anchor="middle" x="31.62" y="-343.7" font-family="Times,serif" font-size="14.00">data: 1.0</text>
</g>
<!-- 4476154752&#45;&gt;44747244804473647600 -->
<g id="edge31" class="edge">
<title>4476154752&#45;&gt;44747244804473647600</title>
<path fill="none" stroke="black" d="M63.73,-348.5C71.42,-348.5 79.75,-348.5 87.72,-348.5"/>
<polygon fill="black" stroke="black" points="87.51,-352 97.51,-348.5 87.51,-345 87.51,-352"/>
</g>
<!-- 44737875204471594560 -->
<g id="node20" class="node">
<title>44737875204471594560</title>
<ellipse fill="none" stroke="black" cx="126.25" cy="-293.5" rx="27" ry="18"/>
<text text-anchor="middle" x="126.25" y="-288.45" font-family="Times,serif" font-size="14.00">Mul</text>
</g>
<!-- 4476154752&#45;&gt;44737875204471594560 -->
<g id="edge25" class="edge">
<title>4476154752&#45;&gt;44737875204471594560</title>
<path fill="none" stroke="black" d="M63.73,-330.03C74.05,-323.9 85.52,-317.09 95.72,-311.03"/>
<polygon fill="black" stroke="black" points="97.3,-314.16 104.12,-306.05 93.73,-308.15 97.3,-314.16"/>
</g>
<!-- 4475500288 -->
<g id="node10" class="node">
<title>4475500288</title>
<polygon fill="none" stroke="black" points="0,-385.5 0,-421.5 63.25,-421.5 63.25,-385.5 0,-385.5"/>
<text text-anchor="middle" x="31.62" y="-398.7" font-family="Times,serif" font-size="14.00">data: 0.5</text>
</g>
<!-- 4475500288&#45;&gt;44747244804473647600 -->
<g id="edge26" class="edge">
<title>4475500288&#45;&gt;44747244804473647600</title>
<path fill="none" stroke="black" d="M63.73,-385.03C74.05,-378.9 85.52,-372.09 95.72,-366.03"/>
<polygon fill="black" stroke="black" points="97.3,-369.16 104.12,-361.05 93.73,-363.15 97.3,-369.16"/>
</g>
<!-- 4475934720 -->
<g id="node11" class="node">
<title>4475934720</title>
<polygon fill="none" stroke="black" points="0,-165.5 0,-201.5 63.25,-201.5 63.25,-165.5 0,-165.5"/>
<text text-anchor="middle" x="31.62" y="-178.7" font-family="Times,serif" font-size="14.00">data: 1.0</text>
</g>
<!-- 44737929604471682912 -->
<g id="node29" class="node">
<title>44737929604471682912</title>
<ellipse fill="none" stroke="black" cx="126.25" cy="-238.5" rx="27" ry="18"/>
<text text-anchor="middle" x="126.25" y="-233.45" font-family="Times,serif" font-size="14.00">Mul</text>
</g>
<!-- 4475934720&#45;&gt;44737929604471682912 -->
<g id="edge34" class="edge">
<title>4475934720&#45;&gt;44737929604471682912</title>
<path fill="none" stroke="black" d="M63.73,-201.97C74.05,-208.1 85.52,-214.91 95.72,-220.97"/>
<polygon fill="black" stroke="black" points="93.73,-223.85 104.12,-225.95 97.3,-217.84 93.73,-223.85"/>
</g>
<!-- 44737973764468842528 -->
<g id="node38" class="node">
<title>44737973764468842528</title>
<ellipse fill="none" stroke="black" cx="126.25" cy="-183.5" rx="27" ry="18"/>
<text text-anchor="middle" x="126.25" y="-178.45" font-family="Times,serif" font-size="14.00">Mul</text>
</g>
<!-- 4475934720&#45;&gt;44737973764468842528 -->
<g id="edge22" class="edge">
<title>4475934720&#45;&gt;44737973764468842528</title>
<path fill="none" stroke="black" d="M63.73,-183.5C71.42,-183.5 79.75,-183.5 87.72,-183.5"/>
<polygon fill="black" stroke="black" points="87.51,-187 97.51,-183.5 87.51,-180 87.51,-187"/>
</g>
<!-- 4474966016 -->
<g id="node12" class="node">
<title>4474966016</title>
<polygon fill="none" stroke="black" points="865,-110.5 865,-146.5 1029.5,-146.5 1029.5,-110.5 865,-110.5"/>
<text text-anchor="middle" x="947.25" y="-123.7" font-family="Times,serif" font-size="14.00">data: 1.7000000476837158</text>
</g>
<!-- 4474966016&#45;&gt;44749621764393959920 -->
<g id="edge39" class="edge">
<title>4474966016&#45;&gt;44749621764393959920</title>
<path fill="none" stroke="black" d="M1029.92,-143.89C1038.6,-145.53 1047.07,-147.13 1054.83,-148.59"/>
<polygon fill="black" stroke="black" points="1054.01,-152 1064.48,-150.41 1055.31,-145.12 1054.01,-152"/>
</g>
<!-- 44749660164476356016 -->
<g id="node13" class="node">
<title>44749660164476356016</title>
<ellipse fill="none" stroke="black" cx="802" cy="-128.5" rx="27" ry="18"/>
<text text-anchor="middle" x="802" y="-123.45" font-family="Times,serif" font-size="14.00">Add</text>
</g>
<!-- 44749660164476356016&#45;&gt;4474966016 -->
<g id="edge5" class="edge">
<title>44749660164476356016&#45;&gt;4474966016</title>
<path fill="none" stroke="black" d="M829.27,-128.5C836.49,-128.5 844.74,-128.5 853.46,-128.5"/>
<polygon fill="black" stroke="black" points="853.18,-132 863.18,-128.5 853.18,-125 853.18,-132"/>
</g>
<!-- 4473797632 -->
<g id="node14" class="node">
<title>4473797632</title>
<polygon fill="none" stroke="black" points="378.5,-110.5 378.5,-146.5 441.75,-146.5 441.75,-110.5 378.5,-110.5"/>
<text text-anchor="middle" x="410.12" y="-123.7" font-family="Times,serif" font-size="14.00">data: 0.5</text>
</g>
<!-- 4473797632&#45;&gt;44737978244471669088 -->
<g id="edge18" class="edge">
<title>4473797632&#45;&gt;44737978244471669088</title>
<path fill="none" stroke="black" d="M442.23,-146.97C452.55,-153.1 464.02,-159.91 474.22,-165.97"/>
<polygon fill="black" stroke="black" points="472.23,-168.85 482.62,-170.95 475.8,-162.84 472.23,-168.85"/>
</g>
<!-- 44737976324471677152 -->
<g id="node15" class="node">
<title>44737976324471677152</title>
<ellipse fill="none" stroke="black" cx="315.5" cy="-128.5" rx="27" ry="18"/>
<text text-anchor="middle" x="315.5" y="-123.45" font-family="Times,serif" font-size="14.00">Mul</text>
</g>
<!-- 44737976324471677152&#45;&gt;4473797632 -->
<g id="edge6" class="edge">
<title>44737976324471677152&#45;&gt;4473797632</title>
<path fill="none" stroke="black" d="M342.79,-128.5C350.28,-128.5 358.64,-128.5 366.82,-128.5"/>
<polygon fill="black" stroke="black" points="366.66,-132 376.66,-128.5 366.66,-125 366.66,-132"/>
</g>
<!-- 4476150528 -->
<g id="node16" class="node">
<title>4476150528</title>
<polygon fill="none" stroke="black" points="567.75,-220.5 567.75,-256.5 739,-256.5 739,-220.5 567.75,-220.5"/>
<text text-anchor="middle" x="653.38" y="-233.7" font-family="Times,serif" font-size="14.00">data: 0.20000000298023224</text>
</g>
<!-- 4476150528&#45;&gt;44737831684471676480 -->
<g id="edge17" class="edge">
<title>4476150528&#45;&gt;44737831684471676480</title>
<path fill="none" stroke="black" d="M715.23,-220.02C723.27,-217.3 731.37,-214.43 739,-211.5 748.93,-207.69 759.55,-203.09 769.15,-198.73"/>
<polygon fill="black" stroke="black" points="770.47,-201.98 778.08,-194.6 767.53,-195.62 770.47,-201.98"/>
</g>
<!-- 4475281920 -->
<g id="node17" class="node">
<title>4475281920</title>
<polygon fill="none" stroke="black" points="378.5,-55.5 378.5,-91.5 441.75,-91.5 441.75,-55.5 378.5,-55.5"/>
<text text-anchor="middle" x="410.12" y="-68.7" font-family="Times,serif" font-size="14.00">data: 0.5</text>
</g>
<!-- 44737832324476355824 -->
<g id="node34" class="node">
<title>44737832324476355824</title>
<ellipse fill="none" stroke="black" cx="504.75" cy="-128.5" rx="27" ry="18"/>
<text text-anchor="middle" x="504.75" y="-123.45" font-family="Times,serif" font-size="14.00">Add</text>
</g>
<!-- 4475281920&#45;&gt;44737832324476355824 -->
<g id="edge41" class="edge">
<title>4475281920&#45;&gt;44737832324476355824</title>
<path fill="none" stroke="black" d="M442.23,-91.97C452.55,-98.1 464.02,-104.91 474.22,-110.97"/>
<polygon fill="black" stroke="black" points="472.23,-113.85 482.62,-115.95 475.8,-107.84 472.23,-113.85"/>
</g>
<!-- 44752819204476355680 -->
<g id="node18" class="node">
<title>44752819204476355680</title>
<ellipse fill="none" stroke="black" cx="315.5" cy="-73.5" rx="27" ry="18"/>
<text text-anchor="middle" x="315.5" y="-68.45" font-family="Times,serif" font-size="14.00">Mul</text>
</g>
<!-- 44752819204476355680&#45;&gt;4475281920 -->
<g id="edge7" class="edge">
<title>44752819204476355680&#45;&gt;4475281920</title>
<path fill="none" stroke="black" d="M342.79,-73.5C350.28,-73.5 358.64,-73.5 366.82,-73.5"/>
<polygon fill="black" stroke="black" points="366.66,-77 376.66,-73.5 366.66,-70 366.66,-77"/>
</g>
<!-- 4473787520 -->
<g id="node19" class="node">
<title>4473787520</title>
<polygon fill="none" stroke="black" points="189.25,-275.5 189.25,-311.5 252.5,-311.5 252.5,-275.5 189.25,-275.5"/>
<text text-anchor="middle" x="220.88" y="-288.7" font-family="Times,serif" font-size="14.00">data: 0.5</text>
</g>
<!-- 44737862404476355440 -->
<g id="node41" class="node">
<title>44737862404476355440</title>
<ellipse fill="none" stroke="black" cx="315.5" cy="-183.5" rx="27" ry="18"/>
<text text-anchor="middle" x="315.5" y="-178.45" font-family="Times,serif" font-size="14.00">Add</text>
</g>
<!-- 4473787520&#45;&gt;44737862404476355440 -->
<g id="edge27" class="edge">
<title>4473787520&#45;&gt;44737862404476355440</title>
<path fill="none" stroke="black" d="M244.31,-275C247.18,-272.27 249.99,-269.39 252.5,-266.5 271.63,-244.42 270.5,-234.51 288.5,-211.5 289.68,-209.99 290.93,-208.47 292.21,-206.95"/>
<polygon fill="black" stroke="black" points="294.69,-209.43 298.71,-199.62 289.45,-204.78 294.69,-209.43"/>
</g>
<!-- 44737875204471594560&#45;&gt;4473787520 -->
<g id="edge8" class="edge">
<title>44737875204471594560&#45;&gt;4473787520</title>
<path fill="none" stroke="black" d="M153.54,-293.5C161.03,-293.5 169.39,-293.5 177.57,-293.5"/>
<polygon fill="black" stroke="black" points="177.41,-297 187.41,-293.5 177.41,-290 177.41,-297"/>
</g>
<!-- 4475287296 -->
<g id="node21" class="node">
<title>4475287296</title>
<polygon fill="none" stroke="black" points="0,-275.5 0,-311.5 63.25,-311.5 63.25,-275.5 0,-275.5"/>
<text text-anchor="middle" x="31.62" y="-288.7" font-family="Times,serif" font-size="14.00">data: 0.5</text>
</g>
<!-- 4475287296&#45;&gt;44737875204471594560 -->
<g id="edge37" class="edge">
<title>4475287296&#45;&gt;44737875204471594560</title>
<path fill="none" stroke="black" d="M63.73,-293.5C71.42,-293.5 79.75,-293.5 87.72,-293.5"/>
<polygon fill="black" stroke="black" points="87.51,-297 97.51,-293.5 87.51,-290 87.51,-297"/>
</g>
<!-- 4474966464 -->
<g id="node22" class="node">
<title>4474966464</title>
<polygon fill="none" stroke="black" points="1769.42,-137.5 1769.42,-173.5 1933.92,-173.5 1933.92,-137.5 1769.42,-137.5"/>
<text text-anchor="middle" x="1851.67" y="-150.7" font-family="Times,serif" font-size="14.00">data: 3.4000000953674316</text>
</g>
<!-- 44749664644476355200 -->
<g id="node23" class="node">
<title>44749664644476355200</title>
<ellipse fill="none" stroke="black" cx="1691.28" cy="-155.5" rx="42.14" ry="18"/>
<text text-anchor="middle" x="1691.28" y="-150.45" font-family="Times,serif" font-size="14.00">Reshape</text>
</g>
<!-- 44749664644476355200&#45;&gt;4474966464 -->
<g id="edge9" class="edge">
<title>44749664644476355200&#45;&gt;4474966464</title>
<path fill="none" stroke="black" d="M1733.89,-155.5C1741.39,-155.5 1749.48,-155.5 1757.77,-155.5"/>
<polygon fill="black" stroke="black" points="1757.65,-159 1767.65,-155.5 1757.65,-152 1757.65,-159"/>
</g>
<!-- 4473797824 -->
<g id="node24" class="node">
<title>4473797824</title>
<polygon fill="none" stroke="black" points="621.75,-165.5 621.75,-201.5 685,-201.5 685,-165.5 621.75,-165.5"/>
<text text-anchor="middle" x="653.38" y="-178.7" font-family="Times,serif" font-size="14.00">data: 1.5</text>
</g>
<!-- 4473797824&#45;&gt;44737831684471676480 -->
<g id="edge35" class="edge">
<title>4473797824&#45;&gt;44737831684471676480</title>
<path fill="none" stroke="black" d="M685.47,-183.5C708.3,-183.5 739.41,-183.5 763.6,-183.5"/>
<polygon fill="black" stroke="black" points="763.34,-187 773.34,-183.5 763.34,-180 763.34,-187"/>
</g>
<!-- 44737978244471669088&#45;&gt;4473797824 -->
<g id="edge10" class="edge">
<title>44737978244471669088&#45;&gt;4473797824</title>
<path fill="none" stroke="black" d="M531.96,-183.5C553.58,-183.5 584.67,-183.5 609.85,-183.5"/>
<polygon fill="black" stroke="black" points="609.79,-187 619.79,-183.5 609.79,-180 609.79,-187"/>
</g>
<!-- 4473773248 -->
<g id="node26" class="node">
<title>4473773248</title>
<polygon fill="none" stroke="black" points="1448.64,-137.5 1448.64,-173.5 1613.14,-173.5 1613.14,-137.5 1448.64,-137.5"/>
<text text-anchor="middle" x="1530.89" y="-150.7" font-family="Times,serif" font-size="14.00">data: 3.4000000953674316</text>
</g>
<!-- 4473773248&#45;&gt;44749664644476355200 -->
<g id="edge43" class="edge">
<title>4473773248&#45;&gt;44749664644476355200</title>
<path fill="none" stroke="black" d="M1613.4,-155.5C1621.56,-155.5 1629.68,-155.5 1637.42,-155.5"/>
<polygon fill="black" stroke="black" points="1637.32,-159 1647.32,-155.5 1637.32,-152 1637.32,-159"/>
</g>
<!-- 44737732484476356640&#45;&gt;4473773248 -->
<g id="edge11" class="edge">
<title>44737732484476356640&#45;&gt;4473773248</title>
<path fill="none" stroke="black" d="M1412.85,-155.5C1420.03,-155.5 1428.18,-155.5 1436.75,-155.5"/>
<polygon fill="black" stroke="black" points="1436.72,-159 1446.72,-155.5 1436.72,-152 1436.72,-159"/>
</g>
<!-- 4473792960 -->
<g id="node28" class="node">
<title>4473792960</title>
<polygon fill="none" stroke="black" points="189.25,-220.5 189.25,-256.5 252.5,-256.5 252.5,-220.5 189.25,-220.5"/>
<text text-anchor="middle" x="220.88" y="-233.7" font-family="Times,serif" font-size="14.00">data: 0.5</text>
</g>
<!-- 4473792960&#45;&gt;44737685764471682432 -->
<g id="edge33" class="edge">
<title>4473792960&#45;&gt;44737685764471682432</title>
<path fill="none" stroke="black" d="M252.98,-238.5C260.67,-238.5 269,-238.5 276.97,-238.5"/>
<polygon fill="black" stroke="black" points="276.76,-242 286.76,-238.5 276.76,-235 276.76,-242"/>
</g>
<!-- 44737929604471682912&#45;&gt;4473792960 -->
<g id="edge12" class="edge">
<title>44737929604471682912&#45;&gt;4473792960</title>
<path fill="none" stroke="black" d="M153.54,-238.5C161.03,-238.5 169.39,-238.5 177.57,-238.5"/>
<polygon fill="black" stroke="black" points="177.41,-242 187.41,-238.5 177.41,-235 177.41,-242"/>
</g>
<!-- 4476153024 -->
<g id="node30" class="node">
<title>4476153024</title>
<polygon fill="none" stroke="black" points="189.25,-55.5 189.25,-91.5 252.5,-91.5 252.5,-55.5 189.25,-55.5"/>
<text text-anchor="middle" x="220.88" y="-68.7" font-family="Times,serif" font-size="14.00">data: 1.0</text>
</g>
<!-- 4476153024&#45;&gt;44737976324471677152 -->
<g id="edge42" class="edge">
<title>4476153024&#45;&gt;44737976324471677152</title>
<path fill="none" stroke="black" d="M252.98,-91.97C263.3,-98.1 274.77,-104.91 284.97,-110.97"/>
<polygon fill="black" stroke="black" points="282.98,-113.85 293.37,-115.95 286.55,-107.84 282.98,-113.85"/>
</g>
<!-- 4476153024&#45;&gt;44752819204476355680 -->
<g id="edge38" class="edge">
<title>4476153024&#45;&gt;44752819204476355680</title>
<path fill="none" stroke="black" d="M252.98,-73.5C260.67,-73.5 269,-73.5 276.97,-73.5"/>
<polygon fill="black" stroke="black" points="276.76,-77 286.76,-73.5 276.76,-70 276.76,-77"/>
</g>
<!-- 4475278528 -->
<g id="node31" class="node">
<title>4475278528</title>
<polygon fill="none" stroke="black" points="189.25,-110.5 189.25,-146.5 252.5,-146.5 252.5,-110.5 189.25,-110.5"/>
<text text-anchor="middle" x="220.88" y="-123.7" font-family="Times,serif" font-size="14.00">data: 0.5</text>
</g>
<!-- 4475278528&#45;&gt;44737976324471677152 -->
<g id="edge21" class="edge">
<title>4475278528&#45;&gt;44737976324471677152</title>
<path fill="none" stroke="black" d="M252.98,-128.5C260.67,-128.5 269,-128.5 276.97,-128.5"/>
<polygon fill="black" stroke="black" points="276.76,-132 286.76,-128.5 276.76,-125 276.76,-132"/>
</g>
<!-- 4475495232 -->
<g id="node32" class="node">
<title>4475495232</title>
<polygon fill="none" stroke="black" points="0,-220.5 0,-256.5 63.25,-256.5 63.25,-220.5 0,-220.5"/>
<text text-anchor="middle" x="31.62" y="-233.7" font-family="Times,serif" font-size="14.00">data: 0.5</text>
</g>
<!-- 4475495232&#45;&gt;44737929604471682912 -->
<g id="edge16" class="edge">
<title>4475495232&#45;&gt;44737929604471682912</title>
<path fill="none" stroke="black" d="M63.73,-238.5C71.42,-238.5 79.75,-238.5 87.72,-238.5"/>
<polygon fill="black" stroke="black" points="87.51,-242 97.51,-238.5 87.51,-235 87.51,-242"/>
</g>
<!-- 4473783232 -->
<g id="node33" class="node">
<title>4473783232</title>
<polygon fill="none" stroke="black" points="621.75,-110.5 621.75,-146.5 685,-146.5 685,-110.5 621.75,-110.5"/>
<text text-anchor="middle" x="653.38" y="-123.7" font-family="Times,serif" font-size="14.00">data: 1.5</text>
</g>
<!-- 4473783232&#45;&gt;44749660164476356016 -->
<g id="edge29" class="edge">
<title>4473783232&#45;&gt;44749660164476356016</title>
<path fill="none" stroke="black" d="M685.47,-128.5C708.3,-128.5 739.41,-128.5 763.6,-128.5"/>
<polygon fill="black" stroke="black" points="763.34,-132 773.34,-128.5 763.34,-125 763.34,-132"/>
</g>
<!-- 44737832324476355824&#45;&gt;4473783232 -->
<g id="edge13" class="edge">
<title>44737832324476355824&#45;&gt;4473783232</title>
<path fill="none" stroke="black" d="M531.96,-128.5C553.58,-128.5 584.67,-128.5 609.85,-128.5"/>
<polygon fill="black" stroke="black" points="609.79,-132 619.79,-128.5 609.79,-125 609.79,-132"/>
</g>
<!-- 4475287872 -->
<g id="node35" class="node">
<title>4475287872</title>
<polygon fill="none" stroke="black" points="0,-110.5 0,-146.5 63.25,-146.5 63.25,-110.5 0,-110.5"/>
<text text-anchor="middle" x="31.62" y="-123.7" font-family="Times,serif" font-size="14.00">data: 0.5</text>
</g>
<!-- 4475287872&#45;&gt;44737973764468842528 -->
<g id="edge30" class="edge">
<title>4475287872&#45;&gt;44737973764468842528</title>
<path fill="none" stroke="black" d="M63.73,-146.97C74.05,-153.1 85.52,-159.91 95.72,-165.97"/>
<polygon fill="black" stroke="black" points="93.73,-168.85 104.12,-170.95 97.3,-162.84 93.73,-168.85"/>
</g>
<!-- 4475288000 -->
<g id="node36" class="node">
<title>4475288000</title>
<polygon fill="none" stroke="black" points="189.25,-0.5 189.25,-36.5 252.5,-36.5 252.5,-0.5 189.25,-0.5"/>
<text text-anchor="middle" x="220.88" y="-13.7" font-family="Times,serif" font-size="14.00">data: 0.5</text>
</g>
<!-- 4475288000&#45;&gt;44752819204476355680 -->
<g id="edge28" class="edge">
<title>4475288000&#45;&gt;44752819204476355680</title>
<path fill="none" stroke="black" d="M252.98,-36.97C263.3,-43.1 274.77,-49.91 284.97,-55.97"/>
<polygon fill="black" stroke="black" points="282.98,-58.85 293.37,-60.95 286.55,-52.84 282.98,-58.85"/>
</g>
<!-- 4473797376 -->
<g id="node37" class="node">
<title>4473797376</title>
<polygon fill="none" stroke="black" points="189.25,-165.5 189.25,-201.5 252.5,-201.5 252.5,-165.5 189.25,-165.5"/>
<text text-anchor="middle" x="220.88" y="-178.7" font-family="Times,serif" font-size="14.00">data: 0.5</text>
</g>
<!-- 4473797376&#45;&gt;44737862404476355440 -->
<g id="edge20" class="edge">
<title>4473797376&#45;&gt;44737862404476355440</title>
<path fill="none" stroke="black" d="M252.98,-183.5C260.67,-183.5 269,-183.5 276.97,-183.5"/>
<polygon fill="black" stroke="black" points="276.76,-187 286.76,-183.5 276.76,-180 276.76,-187"/>
</g>
<!-- 44737973764468842528&#45;&gt;4473797376 -->
<g id="edge14" class="edge">
<title>44737973764468842528&#45;&gt;4473797376</title>
<path fill="none" stroke="black" d="M153.54,-183.5C161.03,-183.5 169.39,-183.5 177.57,-183.5"/>
<polygon fill="black" stroke="black" points="177.41,-187 187.41,-183.5 177.41,-180 177.41,-187"/>
</g>
<!-- 4476143040 -->
<g id="node39" class="node">
<title>4476143040</title>
<polygon fill="none" stroke="black" points="567.75,-55.5 567.75,-91.5 739,-91.5 739,-55.5 567.75,-55.5"/>
<text text-anchor="middle" x="653.38" y="-68.7" font-family="Times,serif" font-size="14.00">data: 0.20000000298023224</text>
</g>
<!-- 4476143040&#45;&gt;44749660164476356016 -->
<g id="edge19" class="edge">
<title>4476143040&#45;&gt;44749660164476356016</title>
<path fill="none" stroke="black" d="M712.44,-91.93C721.38,-95 730.47,-98.24 739,-101.5 748.8,-105.25 759.31,-109.67 768.85,-113.84"/>
<polygon fill="black" stroke="black" points="767.16,-116.92 777.72,-117.77 770,-110.52 767.16,-116.92"/>
</g>
<!-- 4473786240 -->
<g id="node40" class="node">
<title>4473786240</title>
<polygon fill="none" stroke="black" points="378.5,-165.5 378.5,-201.5 441.75,-201.5 441.75,-165.5 378.5,-165.5"/>
<text text-anchor="middle" x="410.12" y="-178.7" font-family="Times,serif" font-size="14.00">data: 1.0</text>
</g>
<!-- 4473786240&#45;&gt;44737832324476355824 -->
<g id="edge40" class="edge">
<title>4473786240&#45;&gt;44737832324476355824</title>
<path fill="none" stroke="black" d="M442.23,-165.03C452.55,-158.9 464.02,-152.09 474.22,-146.03"/>
<polygon fill="black" stroke="black" points="475.8,-149.16 482.62,-141.05 472.23,-143.15 475.8,-149.16"/>
</g>
<!-- 44737862404476355440&#45;&gt;4473786240 -->
<g id="edge15" class="edge">
<title>44737862404476355440&#45;&gt;4473786240</title>
<path fill="none" stroke="black" d="M342.79,-183.5C350.28,-183.5 358.64,-183.5 366.82,-183.5"/>
<polygon fill="black" stroke="black" points="366.66,-187 376.66,-183.5 366.66,-180 366.66,-187"/>
</g>
</g>
</svg>
