<?xml version="1.0" encoding="UTF-8" standalone="no"?>
<!DOCTYPE svg PUBLIC "-//W3C//DTD SVG 1.1//EN"
 "http://www.w3.org/Graphics/SVG/1.1/DTD/svg11.dtd">
<!-- Generated by graphviz version 12.2.1 (20241206.2353)
 -->
<!-- Pages: 1 -->
<svg width="726pt" height="126pt"
 viewBox="0.00 0.00 725.92 126.00" xmlns="http://www.w3.org/2000/svg" xmlns:xlink="http://www.w3.org/1999/xlink">
<g id="graph0" class="graph" transform="scale(1 1) rotate(0) translate(4 122)">
<polygon fill="white" stroke="none" points="-4,4 -4,-122 721.92,-122 721.92,4 -4,4"/>
<!-- 4569375232 -->
<g id="node1" class="node">
<title>4569375232</title>
<polygon fill="none" stroke="black" points="653.17,-34.5 653.17,-83.5 717.92,-83.5 717.92,-34.5 653.17,-34.5"/>
<text text-anchor="middle" x="685.54" y="-66.2" font-family="Times,serif" font-size="14.00">data: 8.0</text>
<polyline fill="none" stroke="black" points="653.17,-59 717.92,-59"/>
<text text-anchor="middle" x="685.54" y="-41.7" font-family="Times,serif" font-size="14.00">grad: 1.0</text>
</g>
<!-- 45693752324411155136 -->
<g id="node2" class="node">
<title>45693752324411155136</title>
<ellipse fill="none" stroke="black" cx="575.03" cy="-59" rx="42.14" ry="18"/>
<text text-anchor="middle" x="575.03" y="-53.95" font-family="Times,serif" font-size="14.00">Reshape</text>
</g>
<!-- 45693752324411155136&#45;&gt;4569375232 -->
<g id="edge1" class="edge">
<title>45693752324411155136&#45;&gt;4569375232</title>
<path fill="none" stroke="black" d="M617.36,-59C625.25,-59 633.52,-59 641.46,-59"/>
<polygon fill="black" stroke="black" points="641.26,-62.5 651.26,-59 641.26,-55.5 641.26,-62.5"/>
</g>
<!-- 4568444416 -->
<g id="node3" class="node">
<title>4568444416</title>
<polygon fill="none" stroke="black" points="0,-68.5 0,-117.5 81.25,-117.5 81.25,-68.5 0,-68.5"/>
<text text-anchor="middle" x="40.62" y="-100.2" font-family="Times,serif" font-size="14.00">data: [1. 2.]</text>
<polyline fill="none" stroke="black" points="0,-93 81.25,-93"/>
<text text-anchor="middle" x="40.62" y="-75.7" font-family="Times,serif" font-size="14.00">grad: [2. 3.]</text>
</g>
<!-- 45684480644411162432 -->
<g id="node5" class="node">
<title>45684480644411162432</title>
<ellipse fill="none" stroke="black" cx="144.25" cy="-59" rx="27" ry="18"/>
<text text-anchor="middle" x="144.25" y="-53.95" font-family="Times,serif" font-size="14.00">Mul</text>
</g>
<!-- 4568444416&#45;&gt;45684480644411162432 -->
<g id="edge6" class="edge">
<title>4568444416&#45;&gt;45684480644411162432</title>
<path fill="none" stroke="black" d="M81.5,-79.66C90.57,-76.63 100.13,-73.43 108.94,-70.48"/>
<polygon fill="black" stroke="black" points="109.81,-73.88 118.18,-67.39 107.59,-67.24 109.81,-73.88"/>
</g>
<!-- 4568448064 -->
<g id="node4" class="node">
<title>4568448064</title>
<polygon fill="none" stroke="black" points="207.25,-34.5 207.25,-83.5 287,-83.5 287,-34.5 207.25,-34.5"/>
<text text-anchor="middle" x="247.12" y="-66.2" font-family="Times,serif" font-size="14.00">data: [2. 6.]</text>
<polyline fill="none" stroke="black" points="207.25,-59 287,-59"/>
<text text-anchor="middle" x="247.12" y="-41.7" font-family="Times,serif" font-size="14.00">grad: [1.]</text>
</g>
<!-- 45692322564411151920 -->
<g id="node7" class="node">
<title>45692322564411151920</title>
<ellipse fill="none" stroke="black" cx="351.32" cy="-59" rx="28.32" ry="18"/>
<text text-anchor="middle" x="351.32" y="-53.95" font-family="Times,serif" font-size="14.00">Sum</text>
</g>
<!-- 4568448064&#45;&gt;45692322564411151920 -->
<g id="edge5" class="edge">
<title>4568448064&#45;&gt;45692322564411151920</title>
<path fill="none" stroke="black" d="M287.34,-59C295.19,-59 303.44,-59 311.28,-59"/>
<polygon fill="black" stroke="black" points="311.26,-62.5 321.26,-59 311.26,-55.5 311.26,-62.5"/>
</g>
<!-- 45684480644411162432&#45;&gt;4568448064 -->
<g id="edge2" class="edge">
<title>45684480644411162432&#45;&gt;4568448064</title>
<path fill="none" stroke="black" d="M171.49,-59C178.96,-59 187.35,-59 195.74,-59"/>
<polygon fill="black" stroke="black" points="195.58,-62.5 205.58,-59 195.58,-55.5 195.58,-62.5"/>
</g>
<!-- 4569232256 -->
<g id="node6" class="node">
<title>4569232256</title>
<polygon fill="none" stroke="black" points="415.64,-34.5 415.64,-83.5 496.89,-83.5 496.89,-34.5 415.64,-34.5"/>
<text text-anchor="middle" x="456.27" y="-66.2" font-family="Times,serif" font-size="14.00">data: [8.]</text>
<polyline fill="none" stroke="black" points="415.64,-59 496.89,-59"/>
<text text-anchor="middle" x="456.27" y="-41.7" font-family="Times,serif" font-size="14.00">grad: [2. 3.]</text>
</g>
<!-- 4569232256&#45;&gt;45693752324411155136 -->
<g id="edge7" class="edge">
<title>4569232256&#45;&gt;45693752324411155136</title>
<path fill="none" stroke="black" d="M497.12,-59C504.94,-59 513.24,-59 521.4,-59"/>
<polygon fill="black" stroke="black" points="521.25,-62.5 531.25,-59 521.25,-55.5 521.25,-62.5"/>
</g>
<!-- 45692322564411151920&#45;&gt;4569232256 -->
<g id="edge3" class="edge">
<title>45692322564411151920&#45;&gt;4569232256</title>
<path fill="none" stroke="black" d="M379.91,-59C387.36,-59 395.67,-59 403.97,-59"/>
<polygon fill="black" stroke="black" points="403.7,-62.5 413.7,-59 403.7,-55.5 403.7,-62.5"/>
</g>
<!-- 4569099200 -->
<g id="node8" class="node">
<title>4569099200</title>
<polygon fill="none" stroke="black" points="0,-0.5 0,-49.5 81.25,-49.5 81.25,-0.5 0,-0.5"/>
<text text-anchor="middle" x="40.62" y="-32.2" font-family="Times,serif" font-size="14.00">data: [2. 3.]</text>
<polyline fill="none" stroke="black" points="0,-25 81.25,-25"/>
<text text-anchor="middle" x="40.62" y="-7.7" font-family="Times,serif" font-size="14.00">grad: [1. 2.]</text>
</g>
<!-- 4569099200&#45;&gt;45684480644411162432 -->
<g id="edge4" class="edge">
<title>4569099200&#45;&gt;45684480644411162432</title>
<path fill="none" stroke="black" d="M81.5,-38.34C90.57,-41.37 100.13,-44.57 108.94,-47.52"/>
<polygon fill="black" stroke="black" points="107.59,-50.76 118.18,-50.61 109.81,-44.12 107.59,-50.76"/>
</g>
</g>
</svg>
