<?xml version="1.0" encoding="UTF-8" standalone="no"?>
<!DOCTYPE svg PUBLIC "-//W3C//DTD SVG 1.1//EN"
 "http://www.w3.org/Graphics/SVG/1.1/DTD/svg11.dtd">
<!-- Generated by graphviz version 12.2.1 (20241206.2353)
 -->
<!-- Pages: 1 -->
<svg width="710pt" height="126pt"
 viewBox="0.00 0.00 710.17 126.00" xmlns="http://www.w3.org/2000/svg" xmlns:xlink="http://www.w3.org/1999/xlink">
<g id="graph0" class="graph" transform="scale(1 1) rotate(0) translate(4 122)">
<polygon fill="white" stroke="none" points="-4,4 -4,-122 706.17,-122 706.17,4 -4,4"/>
<!-- 4569375232 -->
<g id="node1" class="node">
<title>4569375232</title>
<polygon fill="none" stroke="black" points="637.42,-34.5 637.42,-83.5 702.17,-83.5 702.17,-34.5 637.42,-34.5"/>
<text text-anchor="middle" x="669.79" y="-66.2" font-family="Times,serif" font-size="14.00">data: 8.0</text>
<polyline fill="none" stroke="black" points="637.42,-59 702.17,-59"/>
<text text-anchor="middle" x="669.79" y="-41.7" font-family="Times,serif" font-size="14.00">grad: 1.0</text>
</g>
<!-- 45693752324411155136 -->
<g id="node2" class="node">
<title>45693752324411155136</title>
<ellipse fill="none" stroke="black" cx="559.28" cy="-59" rx="42.14" ry="18"/>
<text text-anchor="middle" x="559.28" y="-53.95" font-family="Times,serif" font-size="14.00">Reshape</text>
</g>
<!-- 45693752324411155136&#45;&gt;4569375232 -->
<g id="edge1" class="edge">
<title>45693752324411155136&#45;&gt;4569375232</title>
<path fill="none" stroke="black" d="M601.61,-59C609.5,-59 617.77,-59 625.71,-59"/>
<polygon fill="black" stroke="black" points="625.51,-62.5 635.51,-59 625.51,-55.5 625.51,-62.5"/>
</g>
<!-- 4568444416 -->
<g id="node3" class="node">
<title>4568444416</title>
<polygon fill="none" stroke="black" points="0,-68.5 0,-117.5 79.75,-117.5 79.75,-68.5 0,-68.5"/>
<text text-anchor="middle" x="39.88" y="-100.2" font-family="Times,serif" font-size="14.00">data: [1. 2.]</text>
<polyline fill="none" stroke="black" points="0,-93 79.75,-93"/>
<text text-anchor="middle" x="39.88" y="-75.7" font-family="Times,serif" font-size="14.00">grad: None</text>
</g>
<!-- 45684480644411162432 -->
<g id="node5" class="node">
<title>45684480644411162432</title>
<ellipse fill="none" stroke="black" cx="142.75" cy="-59" rx="27" ry="18"/>
<text text-anchor="middle" x="142.75" y="-53.95" font-family="Times,serif" font-size="14.00">Mul</text>
</g>
<!-- 4568444416&#45;&gt;45684480644411162432 -->
<g id="edge6" class="edge">
<title>4568444416&#45;&gt;45684480644411162432</title>
<path fill="none" stroke="black" d="M80.16,-79.76C89.19,-76.72 98.71,-73.51 107.51,-70.54"/>
<polygon fill="black" stroke="black" points="108.36,-73.95 116.72,-67.44 106.13,-67.31 108.36,-73.95"/>
</g>
<!-- 4568448064 -->
<g id="node4" class="node">
<title>4568448064</title>
<polygon fill="none" stroke="black" points="205.75,-34.5 205.75,-83.5 285.5,-83.5 285.5,-34.5 205.75,-34.5"/>
<text text-anchor="middle" x="245.62" y="-66.2" font-family="Times,serif" font-size="14.00">data: [2. 6.]</text>
<polyline fill="none" stroke="black" points="205.75,-59 285.5,-59"/>
<text text-anchor="middle" x="245.62" y="-41.7" font-family="Times,serif" font-size="14.00">grad: [1.]</text>
</g>
<!-- 45692322564411151920 -->
<g id="node7" class="node">
<title>45692322564411151920</title>
<ellipse fill="none" stroke="black" cx="349.82" cy="-59" rx="28.32" ry="18"/>
<text text-anchor="middle" x="349.82" y="-53.95" font-family="Times,serif" font-size="14.00">Sum</text>
</g>
<!-- 4568448064&#45;&gt;45692322564411151920 -->
<g id="edge5" class="edge">
<title>4568448064&#45;&gt;45692322564411151920</title>
<path fill="none" stroke="black" d="M285.84,-59C293.69,-59 301.94,-59 309.78,-59"/>
<polygon fill="black" stroke="black" points="309.76,-62.5 319.76,-59 309.76,-55.5 309.76,-62.5"/>
</g>
<!-- 45684480644411162432&#45;&gt;4568448064 -->
<g id="edge2" class="edge">
<title>45684480644411162432&#45;&gt;4568448064</title>
<path fill="none" stroke="black" d="M169.99,-59C177.46,-59 185.85,-59 194.24,-59"/>
<polygon fill="black" stroke="black" points="194.08,-62.5 204.08,-59 194.08,-55.5 194.08,-62.5"/>
</g>
<!-- 4569232256 -->
<g id="node6" class="node">
<title>4569232256</title>
<polygon fill="none" stroke="black" points="414.14,-34.5 414.14,-83.5 481.14,-83.5 481.14,-34.5 414.14,-34.5"/>
<text text-anchor="middle" x="447.64" y="-66.2" font-family="Times,serif" font-size="14.00">data: [8.]</text>
<polyline fill="none" stroke="black" points="414.14,-59 481.14,-59"/>
<text text-anchor="middle" x="447.64" y="-41.7" font-family="Times,serif" font-size="14.00">grad: [1.]</text>
</g>
<!-- 4569232256&#45;&gt;45693752324411155136 -->
<g id="edge7" class="edge">
<title>4569232256&#45;&gt;45693752324411155136</title>
<path fill="none" stroke="black" d="M481.54,-59C489.08,-59 497.29,-59 505.44,-59"/>
<polygon fill="black" stroke="black" points="505.34,-62.5 515.34,-59 505.34,-55.5 505.34,-62.5"/>
</g>
<!-- 45692322564411151920&#45;&gt;4569232256 -->
<g id="edge3" class="edge">
<title>45692322564411151920&#45;&gt;4569232256</title>
<path fill="none" stroke="black" d="M378.54,-59C386.05,-59 394.37,-59 402.55,-59"/>
<polygon fill="black" stroke="black" points="402.39,-62.5 412.39,-59 402.39,-55.5 402.39,-62.5"/>
</g>
<!-- 4569099200 -->
<g id="node8" class="node">
<title>4569099200</title>
<polygon fill="none" stroke="black" points="0,-0.5 0,-49.5 79.75,-49.5 79.75,-0.5 0,-0.5"/>
<text text-anchor="middle" x="39.88" y="-32.2" font-family="Times,serif" font-size="14.00">data: [2. 3.]</text>
<polyline fill="none" stroke="black" points="0,-25 79.75,-25"/>
<text text-anchor="middle" x="39.88" y="-7.7" font-family="Times,serif" font-size="14.00">grad: None</text>
</g>
<!-- 4569099200&#45;&gt;45684480644411162432 -->
<g id="edge4" class="edge">
<title>4569099200&#45;&gt;45684480644411162432</title>
<path fill="none" stroke="black" d="M80.16,-38.24C89.19,-41.28 98.71,-44.49 107.51,-47.46"/>
<polygon fill="black" stroke="black" points="106.13,-50.69 116.72,-50.56 108.36,-44.05 106.13,-50.69"/>
</g>
</g>
</svg>
