<?xml version="1.0" encoding="UTF-8" standalone="no"?>
<!DOCTYPE svg PUBLIC "-//W3C//DTD SVG 1.1//EN"
 "http://www.w3.org/Graphics/SVG/1.1/DTD/svg11.dtd">
<!-- Generated by graphviz version 12.2.1 (20241206.2353)
 -->
<!-- Pages: 1 -->
<svg width="274pt" height="100pt"
 viewBox="0.00 0.00 274.00 100.00" xmlns="http://www.w3.org/2000/svg" xmlns:xlink="http://www.w3.org/1999/xlink">
<g id="graph0" class="graph" transform="scale(1 1) rotate(0) translate(4 96)">
<polygon fill="white" stroke="none" points="-4,4 -4,-96 270,-96 270,4 -4,4"/>
<!-- 4402991296 -->
<g id="node1" class="node">
<title>4402991296</title>
<polygon fill="none" stroke="black" points="196,-27.5 196,-63.5 266,-63.5 266,-27.5 196,-27.5"/>
<text text-anchor="middle" x="231" y="-40.7" font-family="Times,serif" font-size="14.00">data: 1.30</text>
</g>
<!-- 44029912964401180256 -->
<g id="node2" class="node">
<title>44029912964401180256</title>
<ellipse fill="none" stroke="black" cx="133" cy="-45.5" rx="27" ry="18"/>
<text text-anchor="middle" x="133" y="-40.45" font-family="Times,serif" font-size="14.00">Add</text>
</g>
<!-- 44029912964401180256&#45;&gt;4402991296 -->
<g id="edge1" class="edge">
<title>44029912964401180256&#45;&gt;4402991296</title>
<path fill="none" stroke="black" d="M160.49,-45.5C167.88,-45.5 176.13,-45.5 184.3,-45.5"/>
<polygon fill="black" stroke="black" points="184.17,-49 194.17,-45.5 184.16,-42 184.17,-49"/>
</g>
<!-- 4403517376 -->
<g id="node3" class="node">
<title>4403517376</title>
<polygon fill="none" stroke="black" points="0,-55.5 0,-91.5 70,-91.5 70,-55.5 0,-55.5"/>
<text text-anchor="middle" x="35" y="-68.7" font-family="Times,serif" font-size="14.00">data: 0.80</text>
</g>
<!-- 4403517376&#45;&gt;44029912964401180256 -->
<g id="edge2" class="edge">
<title>4403517376&#45;&gt;44029912964401180256</title>
<path fill="none" stroke="black" d="M70.39,-63.47C78.99,-60.96 88.23,-58.27 96.87,-55.75"/>
<polygon fill="black" stroke="black" points="97.71,-59.15 106.33,-52.99 95.75,-52.43 97.71,-59.15"/>
</g>
<!-- 4403524544 -->
<g id="node4" class="node">
<title>4403524544</title>
<polygon fill="none" stroke="black" points="0,-0.5 0,-36.5 70,-36.5 70,-0.5 0,-0.5"/>
<text text-anchor="middle" x="35" y="-13.7" font-family="Times,serif" font-size="14.00">data: 0.50</text>
</g>
<!-- 4403524544&#45;&gt;44029912964401180256 -->
<g id="edge3" class="edge">
<title>4403524544&#45;&gt;44029912964401180256</title>
<path fill="none" stroke="black" d="M70.39,-28.17C78.92,-30.57 88.07,-33.14 96.65,-35.56"/>
<polygon fill="black" stroke="black" points="95.45,-38.86 106.03,-38.19 97.35,-32.12 95.45,-38.86"/>
</g>
</g>
</svg>
