<?xml version="1.0" encoding="UTF-8" standalone="no"?>
<!DOCTYPE svg PUBLIC "-//W3C//DTD SVG 1.1//EN"
 "http://www.w3.org/Graphics/SVG/1.1/DTD/svg11.dtd">
<!-- Generated by graphviz version 12.2.1 (20241206.2353)
 -->
<!-- Pages: 1 -->
<svg width="470pt" height="128pt"
 viewBox="0.00 0.00 470.00 128.00" xmlns="http://www.w3.org/2000/svg" xmlns:xlink="http://www.w3.org/1999/xlink">
<g id="graph0" class="graph" transform="scale(1 1) rotate(0) translate(4 124)">
<polygon fill="white" stroke="none" points="-4,4 -4,-124 466,-124 466,4 -4,4"/>
<!-- 4403067648 -->
<g id="node1" class="node">
<title>4403067648</title>
<polygon fill="none" stroke="black" points="392,-27.5 392,-63.5 462,-63.5 462,-27.5 392,-27.5"/>
<text text-anchor="middle" x="427" y="-40.7" font-family="Times,serif" font-size="14.00">data: 1.30</text>
</g>
<!-- 44030676484369727104 -->
<g id="node2" class="node">
<title>44030676484369727104</title>
<ellipse fill="none" stroke="black" cx="329" cy="-45.5" rx="27" ry="18"/>
<text text-anchor="middle" x="329" y="-40.45" font-family="Times,serif" font-size="14.00">Add</text>
</g>
<!-- 44030676484369727104&#45;&gt;4403067648 -->
<g id="edge1" class="edge">
<title>44030676484369727104&#45;&gt;4403067648</title>
<path fill="none" stroke="black" d="M356.49,-45.5C363.88,-45.5 372.13,-45.5 380.3,-45.5"/>
<polygon fill="black" stroke="black" points="380.17,-49 390.17,-45.5 380.16,-42 380.17,-49"/>
</g>
<!-- 4403633408 -->
<g id="node3" class="node">
<title>4403633408</title>
<polygon fill="none" stroke="black" points="0,-83.5 0,-119.5 70,-119.5 70,-83.5 0,-83.5"/>
<text text-anchor="middle" x="35" y="-96.7" font-family="Times,serif" font-size="14.00">data: 1.00</text>
</g>
<!-- 44029793924400010416 -->
<g id="node5" class="node">
<title>44029793924400010416</title>
<ellipse fill="none" stroke="black" cx="133" cy="-73.5" rx="27" ry="18"/>
<text text-anchor="middle" x="133" y="-68.45" font-family="Times,serif" font-size="14.00">Mul</text>
</g>
<!-- 4403633408&#45;&gt;44029793924400010416 -->
<g id="edge5" class="edge">
<title>4403633408&#45;&gt;44029793924400010416</title>
<path fill="none" stroke="black" d="M70.39,-91.47C78.99,-88.96 88.23,-86.27 96.87,-83.75"/>
<polygon fill="black" stroke="black" points="97.71,-87.15 106.33,-80.99 95.75,-80.43 97.71,-87.15"/>
</g>
<!-- 4402979392 -->
<g id="node4" class="node">
<title>4402979392</title>
<polygon fill="none" stroke="black" points="196,-55.5 196,-91.5 266,-91.5 266,-55.5 196,-55.5"/>
<text text-anchor="middle" x="231" y="-68.7" font-family="Times,serif" font-size="14.00">data: 0.50</text>
</g>
<!-- 4402979392&#45;&gt;44030676484369727104 -->
<g id="edge4" class="edge">
<title>4402979392&#45;&gt;44030676484369727104</title>
<path fill="none" stroke="black" d="M266.39,-63.47C274.99,-60.96 284.23,-58.27 292.87,-55.75"/>
<polygon fill="black" stroke="black" points="293.71,-59.15 302.33,-52.99 291.75,-52.43 293.71,-59.15"/>
</g>
<!-- 44029793924400010416&#45;&gt;4402979392 -->
<g id="edge2" class="edge">
<title>44029793924400010416&#45;&gt;4402979392</title>
<path fill="none" stroke="black" d="M160.49,-73.5C167.88,-73.5 176.13,-73.5 184.3,-73.5"/>
<polygon fill="black" stroke="black" points="184.17,-77 194.17,-73.5 184.16,-70 184.17,-77"/>
</g>
<!-- 4403641216 -->
<g id="node6" class="node">
<title>4403641216</title>
<polygon fill="none" stroke="black" points="0,-28.5 0,-64.5 70,-64.5 70,-28.5 0,-28.5"/>
<text text-anchor="middle" x="35" y="-41.7" font-family="Times,serif" font-size="14.00">data: 0.50</text>
</g>
<!-- 4403641216&#45;&gt;44029793924400010416 -->
<g id="edge3" class="edge">
<title>4403641216&#45;&gt;44029793924400010416</title>
<path fill="none" stroke="black" d="M70.39,-56.17C78.92,-58.57 88.07,-61.14 96.65,-63.56"/>
<polygon fill="black" stroke="black" points="95.45,-66.86 106.03,-66.19 97.35,-60.12 95.45,-66.86"/>
</g>
<!-- 4403634688 -->
<g id="node7" class="node">
<title>4403634688</title>
<polygon fill="none" stroke="black" points="196,-0.5 196,-36.5 266,-36.5 266,-0.5 196,-0.5"/>
<text text-anchor="middle" x="231" y="-13.7" font-family="Times,serif" font-size="14.00">data: 0.80</text>
</g>
<!-- 4403634688&#45;&gt;44030676484369727104 -->
<g id="edge6" class="edge">
<title>4403634688&#45;&gt;44030676484369727104</title>
<path fill="none" stroke="black" d="M266.39,-28.17C274.92,-30.57 284.07,-33.14 292.65,-35.56"/>
<polygon fill="black" stroke="black" points="291.45,-38.86 302.03,-38.19 293.35,-32.12 291.45,-38.86"/>
</g>
</g>
</svg>
