<?xml version="1.0" encoding="UTF-8" standalone="no"?>
<!DOCTYPE svg PUBLIC "-//W3C//DTD SVG 1.1//EN"
 "http://www.w3.org/Graphics/SVG/1.1/DTD/svg11.dtd">
<!-- Generated by graphviz version 12.2.1 (20241206.2353)
 -->
<!-- Pages: 1 -->
<svg width="862pt" height="155pt"
 viewBox="0.00 0.00 862.00 155.00" xmlns="http://www.w3.org/2000/svg" xmlns:xlink="http://www.w3.org/1999/xlink">
<g id="graph0" class="graph" transform="scale(1 1) rotate(0) translate(4 151)">
<polygon fill="white" stroke="none" points="-4,4 -4,-151 858,-151 858,4 -4,4"/>
<!-- 4403674624 -->
<g id="node1" class="node">
<title>4403674624</title>
<polygon fill="none" stroke="black" points="784,-23.5 784,-59.5 854,-59.5 854,-23.5 784,-23.5"/>
<text text-anchor="middle" x="819" y="-36.7" font-family="Times,serif" font-size="14.00">data: 4.30</text>
</g>
<!-- 44036746244369721968 -->
<g id="node2" class="node">
<title>44036746244369721968</title>
<ellipse fill="none" stroke="black" cx="721" cy="-41.5" rx="27" ry="18"/>
<text text-anchor="middle" x="721" y="-36.45" font-family="Times,serif" font-size="14.00">Add</text>
</g>
<!-- 44036746244369721968&#45;&gt;4403674624 -->
<g id="edge1" class="edge">
<title>44036746244369721968&#45;&gt;4403674624</title>
<path fill="none" stroke="black" d="M748.49,-41.5C755.88,-41.5 764.13,-41.5 772.3,-41.5"/>
<polygon fill="black" stroke="black" points="772.17,-45 782.17,-41.5 772.16,-38 772.17,-45"/>
</g>
<!-- 4368141504 -->
<g id="node3" class="node">
<title>4368141504</title>
<polygon fill="none" stroke="black" points="0,-110.5 0,-146.5 70,-146.5 70,-110.5 0,-110.5"/>
<text text-anchor="middle" x="35" y="-123.7" font-family="Times,serif" font-size="14.00">data: 1.00</text>
</g>
<!-- 43702818564369716016 -->
<g id="node7" class="node">
<title>43702818564369716016</title>
<ellipse fill="none" stroke="black" cx="133" cy="-124.5" rx="27" ry="18"/>
<text text-anchor="middle" x="133" y="-119.45" font-family="Times,serif" font-size="14.00">Mul</text>
</g>
<!-- 4368141504&#45;&gt;43702818564369716016 -->
<g id="edge13" class="edge">
<title>4368141504&#45;&gt;43702818564369716016</title>
<path fill="none" stroke="black" d="M70.39,-127.07C78.1,-126.75 86.33,-126.4 94.18,-126.08"/>
<polygon fill="black" stroke="black" points="94.33,-129.57 104.17,-125.66 94.03,-122.58 94.33,-129.57"/>
</g>
<!-- 4403673728 -->
<g id="node4" class="node">
<title>4403673728</title>
<polygon fill="none" stroke="black" points="588,-47.5 588,-83.5 658,-83.5 658,-47.5 588,-47.5"/>
<text text-anchor="middle" x="623" y="-60.7" font-family="Times,serif" font-size="14.00">data: 2.30</text>
</g>
<!-- 4403673728&#45;&gt;44036746244369721968 -->
<g id="edge11" class="edge">
<title>4403673728&#45;&gt;44036746244369721968</title>
<path fill="none" stroke="black" d="M658.39,-56.9C666.75,-54.81 675.71,-52.57 684.13,-50.47"/>
<polygon fill="black" stroke="black" points="684.86,-53.89 693.72,-48.07 683.17,-47.1 684.86,-53.89"/>
</g>
<!-- 44036737284369722400 -->
<g id="node5" class="node">
<title>44036737284369722400</title>
<ellipse fill="none" stroke="black" cx="525" cy="-65.5" rx="27" ry="18"/>
<text text-anchor="middle" x="525" y="-60.45" font-family="Times,serif" font-size="14.00">Add</text>
</g>
<!-- 44036737284369722400&#45;&gt;4403673728 -->
<g id="edge2" class="edge">
<title>44036737284369722400&#45;&gt;4403673728</title>
<path fill="none" stroke="black" d="M552.49,-65.5C559.88,-65.5 568.13,-65.5 576.3,-65.5"/>
<polygon fill="black" stroke="black" points="576.17,-69 586.17,-65.5 576.16,-62 576.17,-69"/>
</g>
<!-- 4370281856 -->
<g id="node6" class="node">
<title>4370281856</title>
<polygon fill="none" stroke="black" points="196,-106.5 196,-142.5 266,-142.5 266,-106.5 196,-106.5"/>
<text text-anchor="middle" x="231" y="-119.7" font-family="Times,serif" font-size="14.00">data: 0.50</text>
</g>
<!-- 44036663684369722640 -->
<g id="node9" class="node">
<title>44036663684369722640</title>
<ellipse fill="none" stroke="black" cx="329" cy="-120.5" rx="27" ry="18"/>
<text text-anchor="middle" x="329" y="-115.45" font-family="Times,serif" font-size="14.00">Add</text>
</g>
<!-- 4370281856&#45;&gt;44036663684369722640 -->
<g id="edge14" class="edge">
<title>4370281856&#45;&gt;44036663684369722640</title>
<path fill="none" stroke="black" d="M266.39,-123.07C274.1,-122.75 282.33,-122.4 290.18,-122.08"/>
<polygon fill="black" stroke="black" points="290.33,-125.57 300.17,-121.66 290.03,-118.58 290.33,-125.57"/>
</g>
<!-- 43702818564369716016&#45;&gt;4370281856 -->
<g id="edge3" class="edge">
<title>43702818564369716016&#45;&gt;4370281856</title>
<path fill="none" stroke="black" d="M160.49,-124.5C167.88,-124.5 176.13,-124.5 184.3,-124.5"/>
<polygon fill="black" stroke="black" points="184.17,-128 194.17,-124.5 184.16,-121 184.17,-128"/>
</g>
<!-- 4403666368 -->
<g id="node8" class="node">
<title>4403666368</title>
<polygon fill="none" stroke="black" points="392,-102.5 392,-138.5 462,-138.5 462,-102.5 392,-102.5"/>
<text text-anchor="middle" x="427" y="-115.7" font-family="Times,serif" font-size="14.00">data: 1.50</text>
</g>
<!-- 4403666368&#45;&gt;44036737284369722400 -->
<g id="edge7" class="edge">
<title>4403666368&#45;&gt;44036737284369722400</title>
<path fill="none" stroke="black" d="M460.23,-102.03C471.13,-95.79 483.25,-88.85 493.97,-82.71"/>
<polygon fill="black" stroke="black" points="495.48,-85.87 502.42,-77.86 492,-79.8 495.48,-85.87"/>
</g>
<!-- 44036663684369722640&#45;&gt;4403666368 -->
<g id="edge4" class="edge">
<title>44036663684369722640&#45;&gt;4403666368</title>
<path fill="none" stroke="black" d="M356.49,-120.5C363.88,-120.5 372.13,-120.5 380.3,-120.5"/>
<polygon fill="black" stroke="black" points="380.17,-124 390.17,-120.5 380.16,-117 380.17,-124"/>
</g>
<!-- 4403660608 -->
<g id="node10" class="node">
<title>4403660608</title>
<polygon fill="none" stroke="black" points="0,-55.5 0,-91.5 70,-91.5 70,-55.5 0,-55.5"/>
<text text-anchor="middle" x="35" y="-68.7" font-family="Times,serif" font-size="14.00">data: 0.50</text>
</g>
<!-- 4403660608&#45;&gt;43702818564369716016 -->
<g id="edge8" class="edge">
<title>4403660608&#45;&gt;43702818564369716016</title>
<path fill="none" stroke="black" d="M70.39,-91.77C80.42,-97.1 91.32,-102.89 101.13,-108.1"/>
<polygon fill="black" stroke="black" points="99.43,-111.16 109.91,-112.76 102.72,-104.98 99.43,-111.16"/>
</g>
<!-- 44036608004369722016 -->
<g id="node12" class="node">
<title>44036608004369722016</title>
<ellipse fill="none" stroke="black" cx="133" cy="-69.5" rx="27" ry="18"/>
<text text-anchor="middle" x="133" y="-64.45" font-family="Times,serif" font-size="14.00">Mul</text>
</g>
<!-- 4403660608&#45;&gt;44036608004369722016 -->
<g id="edge9" class="edge">
<title>4403660608&#45;&gt;44036608004369722016</title>
<path fill="none" stroke="black" d="M70.39,-72.07C78.1,-71.75 86.33,-71.4 94.18,-71.08"/>
<polygon fill="black" stroke="black" points="94.33,-74.57 104.17,-70.66 94.03,-67.58 94.33,-74.57"/>
</g>
<!-- 4403660800 -->
<g id="node11" class="node">
<title>4403660800</title>
<polygon fill="none" stroke="black" points="196,-51.5 196,-87.5 266,-87.5 266,-51.5 196,-51.5"/>
<text text-anchor="middle" x="231" y="-64.7" font-family="Times,serif" font-size="14.00">data: 1.00</text>
</g>
<!-- 4403660800&#45;&gt;44036663684369722640 -->
<g id="edge6" class="edge">
<title>4403660800&#45;&gt;44036663684369722640</title>
<path fill="none" stroke="black" d="M266.39,-87.77C276.42,-93.1 287.32,-98.89 297.13,-104.1"/>
<polygon fill="black" stroke="black" points="295.43,-107.16 305.91,-108.76 298.72,-100.98 295.43,-107.16"/>
</g>
<!-- 44036608004369722016&#45;&gt;4403660800 -->
<g id="edge5" class="edge">
<title>44036608004369722016&#45;&gt;4403660800</title>
<path fill="none" stroke="black" d="M160.49,-69.5C167.88,-69.5 176.13,-69.5 184.3,-69.5"/>
<polygon fill="black" stroke="black" points="184.17,-73 194.17,-69.5 184.16,-66 184.17,-73"/>
</g>
<!-- 4368153024 -->
<g id="node13" class="node">
<title>4368153024</title>
<polygon fill="none" stroke="black" points="0,-0.5 0,-36.5 70,-36.5 70,-0.5 0,-0.5"/>
<text text-anchor="middle" x="35" y="-13.7" font-family="Times,serif" font-size="14.00">data: 2.00</text>
</g>
<!-- 4368153024&#45;&gt;44036746244369721968 -->
<g id="edge15" class="edge">
<title>4368153024&#45;&gt;44036746244369721968</title>
<path fill="none" stroke="black" d="M70.34,-18.5C109.12,-18.5 174.09,-18.5 230,-18.5 230,-18.5 230,-18.5 526,-18.5 581.17,-18.5 644.56,-27.79 683.45,-34.56"/>
<polygon fill="black" stroke="black" points="682.74,-37.99 693.2,-36.3 683.97,-31.1 682.74,-37.99"/>
</g>
<!-- 4368153024&#45;&gt;44036608004369722016 -->
<g id="edge12" class="edge">
<title>4368153024&#45;&gt;44036608004369722016</title>
<path fill="none" stroke="black" d="M70.39,-36.77C80.42,-42.1 91.32,-47.89 101.13,-53.1"/>
<polygon fill="black" stroke="black" points="99.43,-56.16 109.91,-57.76 102.72,-49.98 99.43,-56.16"/>
</g>
<!-- 4403661376 -->
<g id="node14" class="node">
<title>4403661376</title>
<polygon fill="none" stroke="black" points="392,-47.5 392,-83.5 462,-83.5 462,-47.5 392,-47.5"/>
<text text-anchor="middle" x="427" y="-60.7" font-family="Times,serif" font-size="14.00">data: 0.80</text>
</g>
<!-- 4403661376&#45;&gt;44036737284369722400 -->
<g id="edge10" class="edge">
<title>4403661376&#45;&gt;44036737284369722400</title>
<path fill="none" stroke="black" d="M462.39,-65.5C470.1,-65.5 478.33,-65.5 486.18,-65.5"/>
<polygon fill="black" stroke="black" points="486.17,-69 496.17,-65.5 486.17,-62 486.17,-69"/>
</g>
</g>
</svg>
