<?xml version="1.0" encoding="UTF-8" standalone="no"?>
<!DOCTYPE svg PUBLIC "-//W3C//DTD SVG 1.1//EN"
 "http://www.w3.org/Graphics/SVG/1.1/DTD/svg11.dtd">
<!-- Generated by graphviz version 12.2.1 (20241206.2353)
 -->
<!-- Pages: 1 -->
<svg width="662pt" height="129pt"
 viewBox="0.00 0.00 661.50 128.50" xmlns="http://www.w3.org/2000/svg" xmlns:xlink="http://www.w3.org/1999/xlink">
<g id="graph0" class="graph" transform="scale(1 1) rotate(0) translate(4 124.5)">
<polygon fill="white" stroke="none" points="-4,4 -4,-124.5 657.5,-124.5 657.5,4 -4,4"/>
<!-- 4476005440 -->
<g id="node1" class="node">
<title>4476005440</title>
<polygon fill="none" stroke="black" points="581.25,-78.5 581.25,-114.5 653.5,-114.5 653.5,-78.5 581.25,-78.5"/>
<text text-anchor="middle" x="617.38" y="-91.7" font-family="Times,serif" font-size="14.00">data: [13.]</text>
</g>
<!-- 44760054404476367728 -->
<g id="node2" class="node">
<title>44760054404476367728</title>
<ellipse fill="none" stroke="black" cx="518.25" cy="-96.5" rx="27" ry="18"/>
<text text-anchor="middle" x="518.25" y="-91.45" font-family="Times,serif" font-size="14.00">Add</text>
</g>
<!-- 44760054404476367728&#45;&gt;4476005440 -->
<g id="edge1" class="edge">
<title>44760054404476367728&#45;&gt;4476005440</title>
<path fill="none" stroke="black" d="M545.53,-96.5C552.94,-96.5 561.23,-96.5 569.46,-96.5"/>
<polygon fill="black" stroke="black" points="569.44,-100 579.44,-96.5 569.44,-93 569.44,-100"/>
</g>
<!-- 4470233344 -->
<g id="node3" class="node">
<title>4470233344</title>
<polygon fill="none" stroke="black" points="191.5,-55.5 191.5,-91.5 257,-91.5 257,-55.5 191.5,-55.5"/>
<text text-anchor="middle" x="224.25" y="-68.7" font-family="Times,serif" font-size="14.00">data: [5.]</text>
</g>
<!-- 44702409604477473584 -->
<g id="node8" class="node">
<title>44702409604477473584</title>
<ellipse fill="none" stroke="black" cx="320" cy="-73.5" rx="27" ry="18"/>
<text text-anchor="middle" x="320" y="-68.45" font-family="Times,serif" font-size="14.00">Add</text>
</g>
<!-- 4470233344&#45;&gt;44702409604477473584 -->
<g id="edge7" class="edge">
<title>4470233344&#45;&gt;44702409604477473584</title>
<path fill="none" stroke="black" d="M257.25,-73.5C265.02,-73.5 273.4,-73.5 281.4,-73.5"/>
<polygon fill="black" stroke="black" points="281.23,-77 291.23,-73.5 281.23,-70 281.23,-77"/>
</g>
<!-- 44702333444477266544 -->
<g id="node4" class="node">
<title>44702333444477266544</title>
<ellipse fill="none" stroke="black" cx="128.5" cy="-73.5" rx="27" ry="18"/>
<text text-anchor="middle" x="128.5" y="-68.45" font-family="Times,serif" font-size="14.00">Add</text>
</g>
<!-- 44702333444477266544&#45;&gt;4470233344 -->
<g id="edge2" class="edge">
<title>44702333444477266544&#45;&gt;4470233344</title>
<path fill="none" stroke="black" d="M155.61,-73.5C163.13,-73.5 171.53,-73.5 179.79,-73.5"/>
<polygon fill="black" stroke="black" points="179.76,-77 189.76,-73.5 179.76,-70 179.76,-77"/>
</g>
<!-- 4476038272 -->
<g id="node5" class="node">
<title>4476038272</title>
<polygon fill="none" stroke="black" points="0,-1.5 0,-37.5 65.5,-37.5 65.5,-1.5 0,-1.5"/>
<text text-anchor="middle" x="32.75" y="-14.7" font-family="Times,serif" font-size="14.00">data: [3.]</text>
</g>
<!-- 4476038272&#45;&gt;44702333444477266544 -->
<g id="edge8" class="edge">
<title>4476038272&#45;&gt;44702333444477266544</title>
<path fill="none" stroke="black" d="M65.75,-37.93C76.09,-43.89 87.52,-50.47 97.69,-56.33"/>
<polygon fill="black" stroke="black" points="95.65,-59.19 106.06,-61.15 99.14,-53.13 95.65,-59.19"/>
</g>
<!-- 43939952644477472912 -->
<g id="node10" class="node">
<title>43939952644477472912</title>
<ellipse fill="none" stroke="black" cx="128.5" cy="-19.5" rx="27" ry="18"/>
<text text-anchor="middle" x="128.5" y="-14.45" font-family="Times,serif" font-size="14.00">Mul</text>
</g>
<!-- 4476038272&#45;&gt;43939952644477472912 -->
<g id="edge5" class="edge">
<title>4476038272&#45;&gt;43939952644477472912</title>
<path fill="none" stroke="black" d="M65.75,-19.5C73.52,-19.5 81.9,-19.5 89.9,-19.5"/>
<polygon fill="black" stroke="black" points="89.73,-23 99.73,-19.5 89.73,-16 89.73,-23"/>
</g>
<!-- 4476225024 -->
<g id="node6" class="node">
<title>4476225024</title>
<polygon fill="none" stroke="black" points="0,-56.5 0,-92.5 65.5,-92.5 65.5,-56.5 0,-56.5"/>
<text text-anchor="middle" x="32.75" y="-69.7" font-family="Times,serif" font-size="14.00">data: [2.]</text>
</g>
<!-- 4476225024&#45;&gt;44760054404476367728 -->
<g id="edge12" class="edge">
<title>4476225024&#45;&gt;44760054404476367728</title>
<path fill="none" stroke="black" d="M65.7,-88.3C76.86,-92.7 89.58,-97.27 101.5,-100.5 154.43,-114.84 168.41,-120.5 223.25,-120.5 223.25,-120.5 223.25,-120.5 321,-120.5 377.11,-120.5 441.59,-110.71 480.86,-103.64"/>
<polygon fill="black" stroke="black" points="481.28,-107.12 490.48,-101.86 480.01,-100.24 481.28,-107.12"/>
</g>
<!-- 4476225024&#45;&gt;44702333444477266544 -->
<g id="edge11" class="edge">
<title>4476225024&#45;&gt;44702333444477266544</title>
<path fill="none" stroke="black" d="M65.75,-74.16C73.52,-74.08 81.9,-73.99 89.9,-73.9"/>
<polygon fill="black" stroke="black" points="89.76,-77.4 99.73,-73.8 89.69,-70.4 89.76,-77.4"/>
</g>
<!-- 4476225024&#45;&gt;43939952644477472912 -->
<g id="edge6" class="edge">
<title>4476225024&#45;&gt;43939952644477472912</title>
<path fill="none" stroke="black" d="M65.23,-56.03C75.68,-49.9 87.28,-43.09 97.61,-37.03"/>
<polygon fill="black" stroke="black" points="99.27,-40.12 106.12,-32.04 95.73,-34.08 99.27,-40.12"/>
</g>
<!-- 4470240960 -->
<g id="node7" class="node">
<title>4470240960</title>
<polygon fill="none" stroke="black" points="383,-55.5 383,-91.5 455.25,-91.5 455.25,-55.5 383,-55.5"/>
<text text-anchor="middle" x="419.12" y="-68.7" font-family="Times,serif" font-size="14.00">data: [11.]</text>
</g>
<!-- 4470240960&#45;&gt;44760054404476367728 -->
<g id="edge9" class="edge">
<title>4470240960&#45;&gt;44760054404476367728</title>
<path fill="none" stroke="black" d="M455.74,-81.93C464.08,-83.91 472.96,-86.01 481.31,-87.99"/>
<polygon fill="black" stroke="black" points="480.26,-91.34 490.8,-90.24 481.87,-84.53 480.26,-91.34"/>
</g>
<!-- 44702409604477473584&#45;&gt;4470240960 -->
<g id="edge3" class="edge">
<title>44702409604477473584&#45;&gt;4470240960</title>
<path fill="none" stroke="black" d="M347.28,-73.5C354.69,-73.5 362.98,-73.5 371.21,-73.5"/>
<polygon fill="black" stroke="black" points="371.19,-77 381.19,-73.5 371.19,-70 371.19,-77"/>
</g>
<!-- 4393995264 -->
<g id="node9" class="node">
<title>4393995264</title>
<polygon fill="none" stroke="black" points="191.5,-0.5 191.5,-36.5 257,-36.5 257,-0.5 191.5,-0.5"/>
<text text-anchor="middle" x="224.25" y="-13.7" font-family="Times,serif" font-size="14.00">data: [6.]</text>
</g>
<!-- 4393995264&#45;&gt;44702409604477473584 -->
<g id="edge10" class="edge">
<title>4393995264&#45;&gt;44702409604477473584</title>
<path fill="none" stroke="black" d="M256.73,-36.97C267.18,-43.1 278.78,-49.91 289.11,-55.97"/>
<polygon fill="black" stroke="black" points="287.23,-58.92 297.62,-60.96 290.77,-52.88 287.23,-58.92"/>
</g>
<!-- 43939952644477472912&#45;&gt;4393995264 -->
<g id="edge4" class="edge">
<title>43939952644477472912&#45;&gt;4393995264</title>
<path fill="none" stroke="black" d="M155.61,-19.22C163.13,-19.14 171.53,-19.05 179.79,-18.96"/>
<polygon fill="black" stroke="black" points="179.79,-22.46 189.76,-18.86 179.72,-15.46 179.79,-22.46"/>
</g>
</g>
</svg>
